<svg id="Layer_2" data-name="Layer 2" xmlns="http://www.w3.org/2000/svg" viewBox="0 0 800 540"><title>cassette</title><rect x="16.5" y="17" width="767" height="506" rx="19.32" fill="none" stroke="#000" stroke-miterlimit="10" stroke-width="1.5"/><path d="M623,387H177a16.22,16.22,0,0,0-15.85,12.73L134,523H666L638.81,399.73A16.22,16.22,0,0,0,623,387Z" fill="none" stroke="#000" stroke-miterlimit="10" stroke-width="1.5"/><circle cx="44.5" cy="45" r="13" fill="none" stroke="#000" stroke-miterlimit="10" stroke-width="1.5"/><circle cx="44.5" cy="495" r="13" fill="none" stroke="#000" stroke-miterlimit="10" stroke-width="1.5"/><circle cx="215.75" cy="478.5" r="19.5" fill="none" stroke="#000" stroke-miterlimit="10" stroke-width="1.5"/><circle cx="584.25" cy="478.5" r="19.5" fill="none" stroke="#000" stroke-miterlimit="10" stroke-width="1.5"/><circle cx="755.5" cy="45" r="13" fill="none" stroke="#000" stroke-miterlimit="10" stroke-width="1.5"/><circle cx="755.5" cy="495" r="13" fill="none" stroke="#000" stroke-miterlimit="10" stroke-width="1.5"/><rect x="276.5" y="432" width="34" height="34" rx="7.69" fill="none" stroke="#000" stroke-miterlimit="10" stroke-width="1.5"/><rect x="489.5" y="432" width="34" height="34" rx="7.69" fill="none" stroke="#000" stroke-miterlimit="10" stroke-width="1.5"/><line x1="39.25" y1="39.75" x2="49.75" y2="50.25" fill="none" stroke="#000" stroke-miterlimit="10" stroke-width="1.5"/><line x1="39.25" y1="50.25" x2="49.75" y2="39.75" fill="none" stroke="#000" stroke-miterlimit="10" stroke-width="1.5"/><line x1="39.25" y1="489.75" x2="49.75" y2="500.25" fill="none" stroke="#000" stroke-miterlimit="10" stroke-width="1.5"/><line x1="39.25" y1="500.25" x2="49.75" y2="489.75" fill="none" stroke="#000" stroke-miterlimit="10" stroke-width="1.5"/><line x1="750.25" y1="489.75" x2="760.75" y2="500.25" fill="none" stroke="#000" stroke-miterlimit="10" stroke-width="1.5"/><line x1="750.25" y1="500.25" x2="760.75" y2="489.75" fill="none" stroke="#000" stroke-miterlimit="10" stroke-width="1.5"/><line x1="750.25" y1="39.75" x2="760.75" y2="50.25" fill="none" stroke="#000" stroke-miterlimit="10" stroke-width="1.5"/><line x1="750.25" y1="50.25" x2="760.75" y2="39.75" fill="none" stroke="#000" stroke-miterlimit="10" stroke-width="1.5"/></svg>