<svg id="Layer_2" data-name="Layer 2" xmlns="http://www.w3.org/2000/svg" viewBox="0 0 800 583"><title>cassette-depth-gray</title><path d="M776.86,3.63H24.16a20,20,0,0,0-20,20V559.28a20,20,0,0,0,20,20h752.7a20,20,0,0,0,20-20V23.6A20,20,0,0,0,776.86,3.63Z" fill="#f2f2f2"/><rect x="3.67" y="4.01" width="792.64" height="522.92" rx="19.32" fill="none" stroke="#000" stroke-miterlimit="10" stroke-width="1.5"/><path d="M630.41,386.38H169.57a16.76,16.76,0,0,0-16.37,13.16L125.1,526.93H674.88l-28.1-127.39A16.76,16.76,0,0,0,630.41,386.38Z" fill="none" stroke="#000" stroke-miterlimit="10" stroke-width="1.5"/><circle cx="32.61" cy="32.95" r="13.43" fill="none" stroke="#000" stroke-miterlimit="10" stroke-width="1.5"/><circle cx="32.61" cy="497.99" r="13.43" fill="none" stroke="#000" stroke-miterlimit="10" stroke-width="1.5"/><circle cx="209.58" cy="480.94" r="20.15" fill="none" stroke="#000" stroke-miterlimit="10" stroke-width="1.5"/><circle cx="590.4" cy="480.94" r="20.15" fill="none" stroke="#000" stroke-miterlimit="10" stroke-width="1.5"/><circle cx="767.38" cy="32.95" r="13.43" fill="none" stroke="#000" stroke-miterlimit="10" stroke-width="1.5"/><circle cx="767.38" cy="497.99" r="13.43" fill="none" stroke="#000" stroke-miterlimit="10" stroke-width="1.5"/><rect x="272.36" y="432.89" width="35.14" height="35.14" rx="7.69" fill="none" stroke="#000" stroke-miterlimit="10" stroke-width="1.5"/><rect x="492.48" y="432.89" width="35.14" height="35.14" rx="7.69" fill="none" stroke="#000" stroke-miterlimit="10" stroke-width="1.5"/><path d="M3.67,503.81v55.85a20,20,0,0,0,20,20h752.7a20,20,0,0,0,20-20V500.71" fill="none" stroke="#000" stroke-miterlimit="10" stroke-width="1.5"/><line x1="125.1" y1="526.55" x2="125.1" y2="579.25" fill="none" stroke="#000" stroke-miterlimit="10" stroke-width="1.5"/><rect x="348.32" y="537.92" width="103.34" height="31" rx="7.69" fill="none" stroke="#000" stroke-miterlimit="10" stroke-width="1.5"/><rect x="140.6" y="537.92" width="57.87" height="31" rx="7.69" fill="none" stroke="#000" stroke-miterlimit="10" stroke-width="1.5"/><rect x="601.51" y="537.92" width="57.87" height="31" rx="7.69" fill="none" stroke="#000" stroke-miterlimit="10" stroke-width="1.5"/><line x1="674.88" y1="526.55" x2="674.88" y2="579.25" fill="none" stroke="#000" stroke-miterlimit="10" stroke-width="1.5"/><circle cx="262.04" cy="253.34" r="46.34" fill="none" stroke="#000" stroke-miterlimit="10" stroke-width="1.5"/><circle cx="539" cy="253.34" r="46.34" fill="none" stroke="#000" stroke-miterlimit="10" stroke-width="1.5"/></svg>