<?xml version="1.0" encoding="utf-8"?>
<!-- Generator: Adobe Illustrator 24.0.2, SVG Export Plug-In . SVG Version: 6.00 Build 0)  -->
<svg version="1.1" id="Layer_2_1_" xmlns="http://www.w3.org/2000/svg" xmlns:xlink="http://www.w3.org/1999/xlink" x="0px" y="0px"
	 viewBox="0 0 800 583" style="enable-background:new 0 0 800 583;" xml:space="preserve">
<style type="text/css">
	.st0{fill:none;stroke:#000000;stroke-width:1.5;stroke-miterlimit:10;}
	.st1{fill:none;stroke:#000000;stroke-width:1.5;stroke-miterlimit:10.0002;}
</style>
<title>cassette-depth</title>
<path class="st0" d="M23,4h754c10.7,0,19.3,8.6,19.3,19.3v484.3c0,10.7-8.6,19.3-19.3,19.3H23c-10.7,0-19.3-8.6-19.3-19.3V23.3
	C3.7,12.7,12.3,4,23,4z"/>
<path class="st0" d="M630.4,386.4H169.6c-7.9,0-14.7,5.5-16.4,13.2L125.1,527h549.8l-28.1-127.4
	C645.1,391.9,638.3,386.4,630.4,386.4z"/>
<circle class="st0" cx="32.6" cy="32.9" r="13.4"/>
<circle class="st0" cx="32.6" cy="498" r="13.4"/>
<circle class="st0" cx="209.6" cy="480.9" r="20.1"/>
<circle class="st0" cx="590.4" cy="480.9" r="20.2"/>
<circle class="st0" cx="767.4" cy="32.9" r="13.4"/>
<circle class="st0" cx="767.4" cy="498" r="13.4"/>
<path class="st0" d="M280,432.9h19.8c4.2,0,7.7,3.4,7.7,7.7v19.8c0,4.2-3.4,7.7-7.7,7.7H280c-4.2,0-7.7-3.4-7.7-7.7v-19.8
	C272.4,436.3,275.8,432.9,280,432.9z"/>
<path class="st0" d="M500.2,432.9H520c4.2,0,7.7,3.4,7.7,7.7v19.8c0,4.2-3.4,7.7-7.7,7.7h-19.8c-4.2,0-7.7-3.4-7.7-7.7v-19.8
	C492.5,436.3,495.9,432.9,500.2,432.9z"/>
<path class="st0" d="M3.7,503.8v55.8c0,11,9,20,20,20h752.7c11,0,20-9,20-20v-58.9"/>
<line class="st0" x1="125.1" y1="526.5" x2="125.1" y2="579.2"/>
<path class="st0" d="M356,537.9h88c4.2,0,7.7,3.4,7.7,7.7v15.6c0,4.2-3.4,7.7-7.7,7.7h-88c-4.2,0-7.7-3.4-7.7-7.7v-15.6
	C348.3,541.4,351.8,537.9,356,537.9z"/>
<path class="st0" d="M148.3,537.9h42.5c4.2,0,7.7,3.4,7.7,7.7v15.6c0,4.2-3.4,7.7-7.7,7.7h-42.5c-4.2,0-7.7-3.4-7.7-7.7v-15.6
	C140.6,541.4,144,537.9,148.3,537.9z"/>
<path class="st0" d="M609.2,537.9h42.5c4.2,0,7.7,3.4,7.7,7.7v15.6c0,4.2-3.4,7.7-7.7,7.7h-42.5c-4.2,0-7.7-3.4-7.7-7.7v-15.6
	C601.5,541.4,605,537.9,609.2,537.9z"/>
<line class="st0" x1="674.9" y1="526.5" x2="674.9" y2="579.2"/>
<circle class="st0" cx="262" cy="253.3" r="46.3"/>
<ellipse transform="matrix(0.1602 -0.9871 0.9871 0.1602 202.5715 744.7608)" class="st1" cx="539" cy="253.3" rx="46.3" ry="46.3"/>
</svg>
