<svg id="Layer_1" data-name="Layer 1" xmlns="http://www.w3.org/2000/svg" viewBox="0 0 50 50"><title>wheel</title><path d="M25,50A25,25,0,0,1,7.32,7.32,25,25,0,0,1,42.68,42.68,24.84,24.84,0,0,1,25,50ZM25,6.41A18.59,18.59,0,1,0,43.59,25,18.61,18.61,0,0,0,25,6.41Z"/><rect x="22.2" y="38.26" width="5.6" height="8.72"/><rect x="34.66" y="33.1" width="5.6" height="8.72" transform="translate(-15.51 37.46) rotate(-45)"/><rect x="38.26" y="22.2" width="8.72" height="5.6"/><rect x="33.1" y="9.75" width="8.72" height="5.6" transform="translate(2.1 30.16) rotate(-45)"/><rect x="22.2" y="3.02" width="5.6" height="8.72"/><rect x="9.75" y="8.18" width="5.6" height="8.72" transform="translate(-5.2 12.54) rotate(-45)"/><rect x="3.02" y="22.2" width="8.72" height="5.6"/><rect x="8.18" y="34.66" width="8.72" height="5.6" transform="translate(-22.81 19.84) rotate(-45)"/></svg>